<svg width="158" height="158" viewBox="0 0 158 158" fill="none" xmlns="http://www.w3.org/2000/svg">
<g clip-path="url(#clip0_3_2)">
<path fill-rule="evenodd" clip-rule="evenodd" d="M135.734 75.0638L82.1349 21.4645C80.1823 19.5118 77.0165 19.5119 75.0638 21.4645L21.4645 75.0638C19.5118 77.0165 19.5119 80.1823 21.4645 82.1349L75.0638 135.734C77.0165 137.687 80.1823 137.687 82.1349 135.734L135.734 82.1349C137.687 80.1823 137.687 77.0165 135.734 75.0638ZM96.277 7.32234C86.5139 -2.44077 70.6848 -2.44078 60.9217 7.32233L7.32234 60.9217C-2.44077 70.6848 -2.44078 86.5139 7.32233 96.277L60.9217 149.876C70.6848 159.64 86.5139 159.64 96.277 149.876L149.876 96.277C159.64 86.5139 159.64 70.6848 149.876 60.9217L96.277 7.32234Z" fill="#9E51E1"/>
<path fill-rule="evenodd" clip-rule="evenodd" d="M26.1577 100.785C33.1275 100.785 37.7159 92.9282 36.5788 86.0518C34.393 72.8336 38.3982 58.7907 48.5944 48.5944C65.387 31.8019 92.6131 31.8019 109.406 48.5944C119.602 58.7907 123.607 72.8336 121.421 86.0518C120.284 92.9281 124.873 100.785 131.842 100.785V100.785C135.62 100.785 139.058 98.4417 140.001 94.7839C145.383 73.9043 139.898 50.8027 123.548 34.4523C98.9447 9.84924 59.0553 9.84924 34.4523 34.4523C18.1019 50.8027 12.6174 73.9043 17.999 94.7839C18.9417 98.4417 22.3803 100.785 26.1577 100.785V100.785ZM60.0624 117.618C57.9547 116.585 55.6708 115.905 53.3232 115.905H37.988C33.7965 115.905 31.4884 120.584 34.4523 123.548V123.548C59.0553 148.151 98.9447 148.151 123.548 123.548V123.548C126.512 120.584 124.204 115.905 120.012 115.905H104.677C102.329 115.905 100.045 116.585 97.9376 117.618C86.0262 123.461 71.9738 123.461 60.0624 117.618Z" fill="#6B1EAE"/>
<path fill-rule="evenodd" clip-rule="evenodd" d="M70.4354 70.4354C65.8549 75.0159 65.8549 82.4423 70.4354 87.0228C75.0159 91.6033 82.4423 91.6033 87.0228 87.0228C91.6033 82.4423 91.6033 75.0159 87.0228 70.4354C82.4423 65.8549 75.0159 65.8549 70.4354 70.4354ZM94.0939 63.3643C85.6081 54.8786 71.85 54.8786 63.3643 63.3643C54.8786 71.85 54.8786 85.6081 63.3643 94.0939C71.85 102.58 85.6081 102.58 94.0939 94.0939C102.58 85.6081 102.58 71.85 94.0939 63.3643Z" fill="#6B1EAE"/>
</g>
<defs>
<clipPath id="clip0_3_2">
<rect width="157.2" height="157.2" fill="white"/>
</clipPath>
</defs>
</svg>
