<svg width="500" height="143" viewBox="0 0 500 143" fill="none" xmlns="http://www.w3.org/2000/svg">
<path d="M123 96.1935V68L75 114H104.419L123 96.1935Z" fill="#9E51E1"/>
<path fill-rule="evenodd" clip-rule="evenodd" d="M123 29H38V114H75L55 134H38H18V114V29V9H38H123H143V29V49L123 68.2V29ZM83.9474 134H123H143V114V76.7895L123 97V114H105L83.9474 134Z" fill="#8625DA"/>
<path d="M188.299 85.056H173.627L171.275 92H161.251L175.475 52.688H186.563L200.787 92H190.651L188.299 85.056ZM185.835 77.664L180.963 63.272L176.147 77.664H185.835ZM233.397 52.688V60.36H222.981V92H213.405V60.36H202.989V52.688H233.397ZM247.778 84.608H260.322V92H238.202V52.688H247.778V84.608ZM289.362 85.056H274.69L272.338 92H262.314L276.538 52.688H287.626L301.85 92H291.714L289.362 85.056ZM286.898 77.664L282.026 63.272L277.21 77.664H286.898ZM320.403 92.392C317.528 92.392 314.952 91.9253 312.675 90.992C310.398 90.0587 308.568 88.6773 307.187 86.848C305.843 85.0187 305.134 82.816 305.059 80.24H315.251C315.4 81.696 315.904 82.816 316.763 83.6C317.622 84.3467 318.742 84.72 320.123 84.72C321.542 84.72 322.662 84.4027 323.483 83.768C324.304 83.096 324.715 82.1813 324.715 81.024C324.715 80.0533 324.379 79.2507 323.707 78.616C323.072 77.9813 322.27 77.4587 321.299 77.048C320.366 76.6373 319.022 76.1707 317.267 75.648C314.728 74.864 312.656 74.08 311.051 73.296C309.446 72.512 308.064 71.3547 306.907 69.824C305.75 68.2933 305.171 66.296 305.171 63.832C305.171 60.1733 306.496 57.3173 309.147 55.264C311.798 53.1733 315.251 52.128 319.507 52.128C323.838 52.128 327.328 53.1733 329.979 55.264C332.63 57.3173 334.048 60.192 334.235 63.888H323.875C323.8 62.6187 323.334 61.6293 322.475 60.92C321.616 60.1733 320.515 59.8 319.171 59.8C318.014 59.8 317.08 60.1173 316.371 60.752C315.662 61.3493 315.307 62.2267 315.307 63.384C315.307 64.6533 315.904 65.6427 317.099 66.352C318.294 67.0613 320.16 67.8267 322.699 68.648C325.238 69.5067 327.291 70.328 328.859 71.112C330.464 71.896 331.846 73.0347 333.003 74.528C334.16 76.0213 334.739 77.944 334.739 80.296C334.739 82.536 334.16 84.5707 333.003 86.4C331.883 88.2293 330.24 89.6853 328.075 90.768C325.91 91.8507 323.352 92.392 320.403 92.392ZM355.36 52.688C359.504 52.688 363.125 53.5093 366.224 55.152C369.323 56.7947 371.712 59.1093 373.392 62.096C375.109 65.0453 375.968 68.4613 375.968 72.344C375.968 76.1893 375.109 79.6053 373.392 82.592C371.712 85.5787 369.304 87.8933 366.168 89.536C363.069 91.1787 359.467 92 355.36 92H340.632V52.688H355.36ZM354.744 83.712C358.365 83.712 361.184 82.7227 363.2 80.744C365.216 78.7653 366.224 75.9653 366.224 72.344C366.224 68.7227 365.216 65.904 363.2 63.888C361.184 61.872 358.365 60.864 354.744 60.864H350.208V83.712H354.744ZM390.896 60.36V68.312H403.72V75.704H390.896V84.328H405.4V92H381.32V52.688H405.4V60.36H390.896ZM425.841 92.392C422.966 92.392 420.39 91.9253 418.113 90.992C415.835 90.0587 414.006 88.6773 412.625 86.848C411.281 85.0187 410.571 82.816 410.497 80.24H420.689C420.838 81.696 421.342 82.816 422.201 83.6C423.059 84.3467 424.179 84.72 425.561 84.72C426.979 84.72 428.099 84.4027 428.921 83.768C429.742 83.096 430.153 82.1813 430.153 81.024C430.153 80.0533 429.817 79.2507 429.145 78.616C428.51 77.9813 427.707 77.4587 426.737 77.048C425.803 76.6373 424.459 76.1707 422.705 75.648C420.166 74.864 418.094 74.08 416.489 73.296C414.883 72.512 413.502 71.3547 412.345 69.824C411.187 68.2933 410.609 66.296 410.609 63.832C410.609 60.1733 411.934 57.3173 414.585 55.264C417.235 53.1733 420.689 52.128 424.945 52.128C429.275 52.128 432.766 53.1733 435.417 55.264C438.067 57.3173 439.486 60.192 439.673 63.888H429.313C429.238 62.6187 428.771 61.6293 427.913 60.92C427.054 60.1733 425.953 59.8 424.609 59.8C423.451 59.8 422.518 60.1173 421.809 60.752C421.099 61.3493 420.745 62.2267 420.745 63.384C420.745 64.6533 421.342 65.6427 422.537 66.352C423.731 67.0613 425.598 67.8267 428.137 68.648C430.675 69.5067 432.729 70.328 434.297 71.112C435.902 71.896 437.283 73.0347 438.441 74.528C439.598 76.0213 440.177 77.944 440.177 80.296C440.177 82.536 439.598 84.5707 438.441 86.4C437.321 88.2293 435.678 89.6853 433.513 90.768C431.347 91.8507 428.79 92.392 425.841 92.392ZM468.862 92L455.646 74.64V92H446.07V52.688H455.646V69.936L468.75 52.688H480.006L464.774 71.952L480.566 92H468.862Z" fill="#9E51E1"/>
</svg>
